# xmcd
#
# Track frame offsets: 
#        150
#        28085
#        48059
#        68002
#        98205
#        120250
#        133169
#        147140
#        164437
#        182983
#        205054
#        218866
#        231372
#        257257
#        287260
#
# Disc length: 4303 seconds
#
# Revision: 6
# Processed by: cddbd v1.5.2PL0 Copyright (c) Steve Scherf et al.
# Submitted via: ExactAudioCopy v1.0b3
#
DISCID=d010cd0f
DTITLE=Moore, Gary - The Platinum Collection [Disc 2 - Blues]
DYEAR=2006
DGENRE=Blues
TTITLE0=Stilll Got The Blues
TTITLE1=Cold Day In Hell
TTITLE2=Moore, Gary feat. Albert King - Oh Pretty Woman
TTITLE3=Story Of The Blues
TTITLE4=Separate Ways
TTITLE5=Moore, Gary feat. B.B. King - Since I Met You Baby
TTITLE6=I Loved Another Woman
TTITLE7=Woke Up This Morning
TTITLE8=Further On Up The Road
TTITLE9=The Sky Is Crying
TTITLE10=Left Me With The Blues
TTITLE11=Mean Cruel Woman
TTITLE12=The Blues Is Alright
TTITLE13=If You Be My Baby
TTITLE14=Need Your Love So Bad
EXTD=
EXTT0=
EXTT1=
EXTT2=
EXTT3=
EXTT4=
EXTT5=
EXTT6=
EXTT7=
EXTT8=
EXTT9=
EXTT10=
EXTT11=
EXTT12=
EXTT13=
EXTT14=
PLAYORDER=
